<?xml version="1.0" encoding="UTF-8"?><svg id="a" xmlns="http://www.w3.org/2000/svg" viewBox="0 0 225.08 207.39"><g id="b"><path d="M68.36,33.25c.77,17.87-7,17.01-11.9,20.46-4.55,3.2-8.76,8.39-9.17,13.93-.58,7.73-.73,21.42,5.72,32.46,7.03,12.04,40.43,37.24,45.76,22.24,4.53-12.76,12.66-.93,19.99.11,6.05.86,18.89-4.81,19.67-10,1.21-8.05-22.33-42.69-36.92-51.17-8.25-4.79-29.74-19.75-33.14-28.04Z" style="fill:#1F3A2E; fill-rule:evenodd;"/></g><g id="c"><path d="M68.44,65.78c2.48-5.17,9.21-5.78,13.34-6.16,6.02-.54,9.57,1.05,16.18,2.66,11.91,2.9,11.26.38,20.65,2.78,14.1,3.62,23.04,11.22,29.16,16.55,5.46,4.76,8.24,7.23,7.88,9.74-.84,5.89-18.05,6.27-30.95,6.56-27.92.62-43.6.7-52.12-12.07-3.55-5.33-6.87-14.41-4.16-20.07Z" style="fill:#8df2b9;"/><path d="M136.15,122.14c-1.37,6.32,7.54,13.36,28.72,32.67,18.89,17.22,20.3,19.37,27.58,23.87,1.74,1.08,31.19,15.55,28.14,10.95-10.6-16-62.15-59.77-80.61-72.25-.82-.56-3.22,1.94-3.84,4.77h0Z" style="fill:#8df2b9;"/></g></svg>
