<svg xmlns="http://www.w3.org/2000/svg" viewBox="0 0 200 200"><path class="hill" style="fill:#F5DC9C; fill-rule:evenodd;" d="M17,157.3c-1.9-5.2,0-7.9,53.9-82.8,7.3-10.2,12.1-16.8,19.5-17.2,13.6-.6,23,9.6,54.8,55.9,19.9,29,22.5,43.4,20.3,49.6-9.7,27.3-135.8,28.2-148.5-5.6h0q0,.1,0,.1Z"/><path class="cairn" style="fill-rule:evenodd;" d="M173.2,158.1c-.2-.4-12.4-21.2-13.5-22.8-18.2-25.8-27.7-45.2-35.2-55.8-5.6-7.8-10.3-10.9-16-9.1-2.3.8-3.9,1.1-5.1.9-1.2-.2-1.9-.9-2.8-2-1.1-1.5-2.4-3.5-4.3-5.9-1.5-1.8-3.1-2.7-4.7-2.8-2.2-.1-4.6,1.2-6.9,3.9-7.4,8.6-15.4,31.5-22.6,42.8-.3.6-.7,1-1,1.3s-.3.2-.3.2c-.2,0-.3-.2-.4-.3-.2-.2-.4-.4-.6-.7-.6-.8-1.2-2-1.9-3.3l-.2-.4-.3-.3-.4-.3-.5-.2h-1c-.3,0-.7.2-1.1.4-1.1.6-2.6,2.2-4,4-2,2.6-3.9,5.5-4.1,6.2-2.4,6.8-4.4,9.8-6.5,12.8-2.3,3.1-4.7,6.2-7.8,13.1-4.4,9.6-5.3,9-11,17.8-.4.7-.2,1.7.5,2.2.7.4,1.7.2,2.2-.5,5.9-9,6.8-8.4,11.2-18.2,3.1-6.6,5.4-9.6,7.5-12.6,2.2-3.1,4.3-6.3,6.9-13.5.3-.7,2.8-4.5,5-6.9.4-.4.9-.9,1.3-1.2,0,0,0,0,0-.1h.2s0,0-.1.1c.7,1.4,1.4,2.6,2,3.4.8,1,1.7,1.5,2.5,1.7,1.4.2,3-.4,4.7-3,.8-1.3,1.6-2.7,2.4-4.2.1.2.3.4.5.5.5.5,1.3.4,1.8,0,5.9-4.6,8.7-7.3,10.6-8.8,1.5-1.2,2.3-1.5,4.2-1.5h.9c0,.2.3.9.3,1.6.3,2.3.8,6.1,3.9,11.8.9,1.7,1.7,2.7,2.3,3.2.2,0,.4.3.5.3l.5.3h1.3c.8-.2,1.7-.9,2.4-2.3.8-1.5,1.7-3.9,3.2-6.2,1.4-2,3.3-4,6.3-4.9.4,0,.8.1,1.1.4.6.6,1.3,1.5,2,2.5,1.3,1.8,2.6,3.9,4.2,5.7,1.8,2,4,3.5,6.7,3.9h.8l.7-.4c.3-.3.7-.8,1.1-1.6,1.6-3,3.9-10.7,4.3-11.4.7-1.3,2-1.1,2.8-1.1s1.3,0,1.8-.2c6.2,10.6,14.2,24.3,25.7,40.5,1.1,1.6,13,21.9,13.2,22.3.4.8,1.3,1.2,2.1.8.8-.4,1.2-1.3.8-2.1ZM127.8,93.7c-1.4.2-2.9.8-3.8,2.7-.3.5-1.5,4.2-2.7,7.5-.5,1.4-1.3,3.1-1.7,3.9-1.7-.5-3-1.5-4.1-2.8-1.5-1.7-2.7-3.7-3.9-5.4-1.1-1.6-2.2-2.9-3.3-3.6-1-.6-2.1-.8-3.3-.5-6.2,1.8-8.8,7.3-10.5,11-.3.7-.7,1.5-1,2-.3-.4-.7-1-1.1-1.8-3.4-6.4-3.4-10.1-3.8-12-.3-1.2-.7-1.9-1.3-2.4-.6-.5-.2-.8-2.9-.8s-3.9.4-6.2,2.2c-1.6,1.3-3.8,3.3-7.8,6.6h0s-.1.2-.1.2c-.2-.2-.4-.4-.6-.5,5.7-11.7,11.7-26.9,17.4-33.5,1.5-1.8,2.9-2.9,4.3-2.8.8,0,1.6.7,2.4,1.7,1.9,2.5,3.1,4.5,4.3,5.9,1.5,1.8,2.9,2.8,4.9,3.1,1.5.2,3.6-.1,6.5-1,2.5-.8,4.7-.2,7,1.7,1.8,1.4,3.5,3.5,5.4,6.2,2.3,3.3,4.8,7.4,7.8,12.3-.5,0-1.2,0-1.9,0Z"/><g class="flag"><path style="fill:#C44536; fill-rule:evenodd;" d="M104,30.3c.9-.4,1.4-.2,15.2,5.6,1.9.8,3.1,1.3,3.3,2.3.3,1.8-1.3,3.3-8.9,8.4-4.8,3.2-7.2,3.8-8.3,3.7-4.9-.8-6.9-17.6-1.2-20h0s0,0,0,0Z"/><path style="fill-rule:evenodd;" d="M120.6,40.2c-12.3-7.3-15.8-9.8-17.4-10.7-.9-.6-1.4-.8-2.1-.8-.6,0-1.1.2-1.4.6-.4.3-.6.9-.6,1.4,1.8,14.7,3.3,31.2,3.5,33.9,0,.8.8,1.4,1.7,1.4.8,0,1.4-.8,1.4-1.7h.1c-.1-1.6-.7-8.1-1.5-16.2.2,0,.4-.2.6-.3,5.7-5.7,15-4.7,15-4.7.7,0,1.2-.5,1.4-1.2.2-.6,0-1.3-.7-1.7ZM104,44.5c-.4-3.8-.8-7.7-1.3-11.7,1.7,1,4.9,3.1,11.9,7.4-3.1.4-7.2,1.6-10.6,4.3Z"/></g></svg>
